<svg width="40" height="40" viewBox="0 0 40 40" fill="none" xmlns="http://www.w3.org/2000/svg">
<rect width="40" height="40" rx="20" fill="#020318"/>
<path d="M23.7549 22.2549H22.9649L22.6849 21.9849C23.6649 20.8449 24.2549 19.3649 24.2549 17.7549C24.2549 14.1649 21.3449 11.2549 17.7549 11.2549C14.1649 11.2549 11.2549 14.1649 11.2549 17.7549C11.2549 21.3449 14.1649 24.2549 17.7549 24.2549C19.3649 24.2549 20.8449 23.6649 21.9849 22.6849L22.2549 22.9649V23.7549L27.2549 28.7449L28.7449 27.2549L23.7549 22.2549ZM17.7549 22.2549C15.2649 22.2549 13.2549 20.2449 13.2549 17.7549C13.2549 15.2649 15.2649 13.2549 17.7549 13.2549C20.2449 13.2549 22.2549 15.2649 22.2549 17.7549C22.2549 20.2449 20.2449 22.2549 17.7549 22.2549Z" fill="#F0F0F2"/>
</svg>
