<svg width="13" height="16" viewBox="0 0 13 16" fill="none" xmlns="http://www.w3.org/2000/svg">
<path d="M3.8125 8.8125C3.57639 8.8125 3.37847 8.73264 3.21875 8.57292C3.05903 8.41319 2.97917 8.21528 2.97917 7.97917V2.83333L1.41667 4.39583C1.26389 4.54861 1.07292 4.625 0.84375 4.625C0.614583 4.625 0.416667 4.54861 0.25 4.39583C0.0833333 4.22917 0 4.03125 0 3.80208C0 3.57292 0.0833333 3.375 0.25 3.20833L3.22917 0.229167C3.3125 0.145833 3.40278 0.0868056 3.5 0.0520833C3.59722 0.0173611 3.70139 0 3.8125 0C3.92361 0 4.02778 0.0173611 4.125 0.0520833C4.22222 0.0868056 4.3125 0.145833 4.39583 0.229167L7.39583 3.22917C7.5625 3.39583 7.64236 3.59028 7.63542 3.8125C7.62847 4.03472 7.54167 4.22917 7.375 4.39583C7.20833 4.54861 7.01389 4.62847 6.79167 4.63542C6.56944 4.64236 6.375 4.5625 6.20833 4.39583L4.64583 2.83333V7.97917C4.64583 8.21528 4.56597 8.41319 4.40625 8.57292C4.24653 8.73264 4.04861 8.8125 3.8125 8.8125ZM8.8125 15.9583C8.70139 15.9583 8.59722 15.941 8.5 15.9062C8.40278 15.8715 8.3125 15.8125 8.22917 15.7292L5.22917 12.7292C5.0625 12.5625 4.98264 12.3681 4.98958 12.1458C4.99653 11.9236 5.08333 11.7292 5.25 11.5625C5.41667 11.4097 5.61111 11.3299 5.83333 11.3229C6.05556 11.316 6.25 11.3958 6.41667 11.5625L7.97917 13.125V7.97917C7.97917 7.74306 8.05903 7.54514 8.21875 7.38542C8.37847 7.22569 8.57639 7.14583 8.8125 7.14583C9.04861 7.14583 9.24653 7.22569 9.40625 7.38542C9.56597 7.54514 9.64583 7.74306 9.64583 7.97917V13.125L11.2083 11.5625C11.3611 11.4097 11.5521 11.3333 11.7812 11.3333C12.0104 11.3333 12.2083 11.4097 12.375 11.5625C12.5417 11.7292 12.625 11.9271 12.625 12.1562C12.625 12.3854 12.5417 12.5833 12.375 12.75L9.39583 15.7292C9.3125 15.8125 9.22222 15.8715 9.125 15.9062C9.02778 15.941 8.92361 15.9583 8.8125 15.9583Z" fill="#009598"/>
</svg>
