<svg width="18" height="18" viewBox="0 0 18 18" fill="none" xmlns="http://www.w3.org/2000/svg">
<path d="M8.74965 17.5C8.53705 17.5 8.35896 17.4281 8.21538 17.2843C8.07179 17.1406 8 16.9625 8 16.75V12.75C8 12.5375 8.0719 12.3594 8.2157 12.2156C8.35952 12.0719 8.53772 12 8.7503 12C8.9629 12 9.14099 12.0719 9.28458 12.2156C9.42816 12.3594 9.49995 12.5375 9.49995 12.75V14H16.75C16.9625 14 17.1406 14.0719 17.2844 14.2157C17.4281 14.3595 17.5 14.5377 17.5 14.7503C17.5 14.9629 17.4281 15.141 17.2844 15.2846C17.1406 15.4282 16.9625 15.5 16.75 15.5H9.49995V16.75C9.49995 16.9625 9.42805 17.1406 9.28425 17.2843C9.14043 17.4281 8.96223 17.5 8.74965 17.5ZM0.749975 15.5C0.537475 15.5 0.359358 15.4281 0.215625 15.2843C0.071875 15.1404 0 14.9622 0 14.7497C0 14.5371 0.071875 14.359 0.215625 14.2154C0.359358 14.0718 0.537475 14 0.749975 14H4.74998C4.96248 14 5.14059 14.0719 5.28433 14.2157C5.42808 14.3595 5.49995 14.5377 5.49995 14.7503C5.49995 14.9629 5.42808 15.141 5.28433 15.2846C5.14059 15.4282 4.96248 15.5 4.74998 15.5H0.749975ZM4.74965 11.5C4.53705 11.5 4.35896 11.4281 4.21537 11.2843C4.07179 11.1406 4 10.9625 4 10.75V9.49995H0.749975C0.537475 9.49995 0.359358 9.42805 0.215625 9.28425C0.071875 9.14043 0 8.96223 0 8.74965C0 8.53705 0.071875 8.35896 0.215625 8.21538C0.359358 8.07179 0.537475 8 0.749975 8H4V6.74998C4 6.53748 4.0719 6.35935 4.2157 6.2156C4.35952 6.07187 4.53772 6 4.7503 6C4.9629 6 5.14099 6.07187 5.28458 6.2156C5.42816 6.35935 5.49995 6.53748 5.49995 6.74998V10.75C5.49995 10.9625 5.42805 11.1406 5.28425 11.2843C5.14043 11.4281 4.96223 11.5 4.74965 11.5ZM8.74998 9.49995C8.53748 9.49995 8.35936 9.42805 8.21563 9.28425C8.07188 9.14043 8 8.96223 8 8.74965C8 8.53705 8.07188 8.35896 8.21563 8.21538C8.35936 8.07179 8.53748 8 8.74998 8H16.75C16.9625 8 17.1406 8.0719 17.2844 8.2157C17.4281 8.35952 17.5 8.53772 17.5 8.7503C17.5 8.9629 17.4281 9.14099 17.2844 9.28458C17.1406 9.42816 16.9625 9.49995 16.75 9.49995H8.74998ZM12.7497 5.49995C12.5371 5.49995 12.359 5.42808 12.2154 5.28435C12.0718 5.1406 12 4.96248 12 4.74998V0.749976C12 0.537476 12.0719 0.359351 12.2157 0.215601C12.3595 0.0718673 12.5377 0 12.7503 0C12.9629 0 13.141 0.0718673 13.2846 0.215601C13.4282 0.359351 13.5 0.537476 13.5 0.749976V2H16.75C16.9625 2 17.1406 2.0719 17.2844 2.2157C17.4281 2.35952 17.5 2.53772 17.5 2.7503C17.5 2.9629 17.4281 3.14099 17.2844 3.28458C17.1406 3.42816 16.9625 3.49995 16.75 3.49995H13.5V4.74998C13.5 4.96248 13.4281 5.1406 13.2843 5.28435C13.1404 5.42808 12.9622 5.49995 12.7497 5.49995ZM0.749975 3.49995C0.537475 3.49995 0.359358 3.42805 0.215625 3.28425C0.071875 3.14043 0 2.96223 0 2.74965C0 2.53705 0.071875 2.35896 0.215625 2.21538C0.359358 2.07179 0.537475 2 0.749975 2H8.74998C8.96247 2 9.14059 2.0719 9.28433 2.2157C9.42808 2.35952 9.49995 2.53772 9.49995 2.7503C9.49995 2.9629 9.42808 3.14099 9.28433 3.28458C9.14059 3.42816 8.96247 3.49995 8.74998 3.49995H0.749975Z" fill="#020318"/>
</svg>
